<?xml version="1.0" encoding="utf-8"?>
<!-- Generator: Adobe Illustrator 23.0.3, SVG Export Plug-In . SVG Version: 6.00 Build 0)  -->
<svg version="1.1" id="Layer_1" xmlns="http://www.w3.org/2000/svg" xmlns:xlink="http://www.w3.org/1999/xlink" x="0px" y="0px"
	 viewBox="0 0 48 48" style="enable-background:new 0 0 48 48;" xml:space="preserve">
<style type="text/css">
	.st0{fill:#90CAF9;}
	.st1{fill:#F48FB1;}
	.st2{fill:#8CE7F2;}
	.st3{fill:none;stroke:#000000;stroke-width:3;stroke-linecap:round;stroke-linejoin:round;stroke-miterlimit:10;}
	.st4{fill:none;stroke:#000000;stroke-width:3;stroke-linecap:round;stroke-miterlimit:10;}
	.st5{fill:#9FA8DA;}
	.st6{fill:none;stroke:#000000;stroke-width:3;stroke-miterlimit:10;}
	.st7{fill:none;stroke:#000000;stroke-width:3;stroke-linecap:round;stroke-linejoin:round;}
	.st8{fill:none;stroke:#000000;stroke-width:3;stroke-linecap:round;stroke-linejoin:round;stroke-miterlimit:5;}
	.st9{fill:#FFE082;}
	.st10{fill:#CCCCCC;}
	.st11{fill:none;stroke:#18193F;stroke-width:3;stroke-linecap:round;stroke-linejoin:round;stroke-miterlimit:10;}
	.st12{fill:none;stroke:#18193F;stroke-width:3;stroke-miterlimit:10;}
	.st13{fill:none;stroke:#18193F;stroke-width:3;stroke-linecap:round;stroke-miterlimit:10;}
	.st14{fill:none;stroke:#18193F;stroke-width:3;stroke-linecap:round;stroke-linejoin:round;}
	.st15{fill:none;stroke:#18193F;stroke-width:3;stroke-linecap:round;stroke-linejoin:round;stroke-miterlimit:5;}
	.st16{fill:#18193F;}
	.st17{fill:none;stroke:#000000;stroke-width:3;stroke-linecap:round;}
	.st18{fill:none;stroke:#000000;stroke-width:3;stroke-miterlimit:20;}
	.st19{fill:none;stroke:#000000;stroke-width:3;stroke-linejoin:round;}
	.st20{fill:none;stroke:#000000;stroke-width:2.5;stroke-linecap:round;}
	.st21{fill:none;stroke:#000000;stroke-width:2.5;stroke-linecap:round;stroke-linejoin:round;}
	.st22{fill:#FFAB91;}
	.st23{fill:#A5D6A7;}
	.st24{fill:none;stroke:#18193F;stroke-width:3;stroke-linecap:round;}
	.st25{fill:none;stroke:#18193F;stroke-width:3;stroke-linejoin:round;}
	.st26{fill:none;stroke:#18193F;stroke-width:3;stroke-miterlimit:20;}
	.st27{fill:none;stroke:#18193F;stroke-width:2.5;stroke-linecap:round;}
	.st28{fill:none;stroke:#18193F;stroke-width:2.5;stroke-linecap:round;stroke-linejoin:round;}
	.st29{fill:none;stroke:#000000;stroke-width:3;stroke-linejoin:round;stroke-miterlimit:10;}
	.st30{fill:none;stroke:#18193F;stroke-width:3;stroke-linejoin:round;stroke-miterlimit:10;}
</style>
<path class="st3" d="M12,30.5c-3.6,0-6.5-2.9-6.5-6.5s2.9-6.5,6.5-6.5s6.5,2.9,6.5,6.5"/>
<path class="st3" d="M36.5,5.5c3.3,0,6,2.7,6,6s-2.7,6-6,6s-6-2.7-6-6c0-0.1,0-0.1,0-0.2"/>
<path class="st3" d="M36,42.5c-3.6,0-6.5-2.9-6.5-6.5s2.9-6.5,6.5-6.5s6.5,2.9,6.5,6.5c0,0.7-0.1,1.4-0.3,2.1"/>
<polyline class="st3" points="18.5,24 26.5,24 32.6,16.3 "/>
<line class="st3" x1="26.5" y1="24" x2="31.9" y2="30.8"/>
</svg>