<?xml version="1.0" encoding="utf-8"?>
<!-- Generator: Adobe Illustrator 23.0.3, SVG Export Plug-In . SVG Version: 6.00 Build 0)  -->
<svg version="1.1" id="Layer_1" xmlns="http://www.w3.org/2000/svg" xmlns:xlink="http://www.w3.org/1999/xlink" x="0px" y="0px"
	 viewBox="0 0 48 48" style="enable-background:new 0 0 48 48;" xml:space="preserve">
<style type="text/css">
	.st0{fill:#8CE7F2;}
	.st1{fill:#FFAB91;}
	.st2{fill:none;stroke:#000000;stroke-width:3;stroke-linecap:round;stroke-linejoin:round;stroke-miterlimit:10;}
	.st3{fill:none;stroke:#000000;stroke-width:3;stroke-linejoin:round;stroke-miterlimit:10;}
	.st4{fill:#FFE082;}
	.st5{fill:none;stroke:#18193F;stroke-width:3;stroke-linecap:round;stroke-linejoin:round;stroke-miterlimit:10;}
	.st6{fill:none;stroke:#18193F;stroke-width:3;stroke-linejoin:round;stroke-miterlimit:10;}
	.st7{fill:none;}
	.st8{fill:none;stroke:#000000;stroke-width:3;stroke-miterlimit:10;}
	.st9{fill:none;stroke:#000000;stroke-width:3;stroke-linecap:round;stroke-miterlimit:10;}
	.st10{fill:#F48FB1;}
	.st11{fill:#9FA8DA;}
	.st12{fill:#18193F;}
	.st13{fill:none;stroke:#18193F;stroke-width:3;stroke-miterlimit:10;}
	.st14{fill:none;stroke:#18193F;stroke-width:3;stroke-linecap:round;stroke-miterlimit:10;}
	.st15{fill:none;stroke:#18193F;stroke-miterlimit:10;}
	.st16{fill:none;stroke:#000000;stroke-width:3;stroke-linecap:round;stroke-linejoin:round;}
	.st17{fill:none;stroke:#000000;stroke-width:3;stroke-linecap:round;}
	.st18{fill:none;stroke:#000000;stroke-width:3;}
	.st19{fill:none;stroke:#000000;stroke-width:3;stroke-linejoin:round;}
	.st20{fill:#90CAF9;}
	.st21{fill:none;stroke:#18193F;stroke-width:3;stroke-linecap:round;stroke-linejoin:round;}
	.st22{fill:none;stroke:#18193F;stroke-width:3;stroke-linecap:round;}
	.st23{fill:none;stroke:#18193F;stroke-width:3;}
	.st24{fill:none;stroke:#18193F;stroke-width:3;stroke-linejoin:round;}
	.st25{fill:#A5D6A7;}
</style>
<circle class="st18" cx="35" cy="11" r="4.5"/>
<circle class="st18" cx="21.5" cy="11.5" r="4"/>
<circle class="st18" cx="10.5" cy="12.5" r="3"/>
<path class="st16" d="M5.5,27l0,6.5c0,1.1,0.9,2,2,2h1.9"/>
<path class="st16" d="M11.5,21.6c-0.4-0.1-0.9-0.1-1.4-0.1c-2.6,0.2-4.6,2.5-4.6,5.2"/>
<path class="st16" d="M24.1,22c-1.1-0.4-2.2-0.6-3.5-0.5c-3.6,0.4-6.1,3.6-6.1,7.2l0,7.8c0,1.1,0.9,2,2,2h5.4"/>
<path class="st16" d="M42.5,29.3v10.2c0,1.1-0.9,2-2,2h-11c-1.1,0-2-0.9-2-2v-3"/>
<path class="st16" d="M27.5,30.8V29c0-4.2,3.5-7.6,7.7-7.5c1.9,0.1,3.7,0.9,5,2.2"/>
</svg>