<?xml version="1.0" encoding="iso-8859-1"?><!-- Generator: Adobe Illustrator 19.2.1, SVG Export Plug-In . SVG Version: 6.00 Build 0)  --><svg xmlns="http://www.w3.org/2000/svg" xmlns:xlink="http://www.w3.org/1999/xlink" viewBox="0 0 50 50" width="50px" height="50px"><circle cx="30.5" cy="28.5" r="1.5"/><circle cx="19.5" cy="28.5" r="1.5"/><path style="fill:none;stroke:#000000;stroke-width:2;stroke-linecap:round;stroke-miterlimit:10;" d="M32.5,12.625c0,0-2.15,4.375-8.5,4.375c-3.72,0-9,0.166-9,5"/><path style="fill:none;stroke:#000000;stroke-width:2;stroke-linecap:round;stroke-miterlimit:10;" d="M32.5,12.625c0,0,3.5,4.422,3.5,9.375"/><g><g><path style="fill:none;stroke:#000000;stroke-width:2;stroke-linecap:round;stroke-linejoin:round;stroke-miterlimit:10;" d="M38.269,25.739C38.964,23.61,40,19.885,40,16c0-3.183-1.419-9-7-9c-0.94-1.724-3.466-4-8.277-4C15.02,3,10,8.637,10,17.596c0,1.681,1.01,6.231,1.673,8.143c-0.568,0.353-1.907,1.473-1.673,3.464c0.437,3.708,3.276,4.726,3.276,4.726c0.296,2.831,3.674,9.108,8.401,11.295C22.395,46.295,23.614,47,25,47c1.387,0,2.607-0.706,3.325-1.778c4.709-2.19,8.044-8.463,8.341-11.293c0,0,2.862-0.982,3.3-4.69C40.2,27.249,38.838,26.092,38.269,25.739z"/></g></g></svg>